<?xml version="1.0" standalone="no"?>
<!DOCTYPE svg PUBLIC "-//W3C//DTD SVG 1.0//EN" "http://www.w3.org/TR/2001/REC-SVG-20010904/DTD/svg10.dtd">
<svg xmlns="http://www.w3.org/2000/svg" xmlns:xlink="http://www.w3.org/1999/xlink" id="body_1" width="32" height="24">

<g transform="matrix(0.03125 0 0 0.03125 0 0)">
	<g transform="matrix(0.3072 0 0 0.3072 210.7904 0)">
	</g>
    <path transform="matrix(0.3072 0 0 0.3072 210.7904 0)"  d="M42.99 270.9C 355.36 180.76 667.68 90.43 980.07 0.41C 1004.16 6.81 1028.05 14.18 1052.06 20.96C 1355.04 108.47 1658.03 195.93 1961 283.48L1961 283.48L1961 944.87C 1959.66 990.29 1957.55 1035.7 1953.13 1080.94C 1939.29 1225.61 1909.86 1368.82 1865.17 1507.12C 1831.98 1609.59 1790.17 1709.32 1739.21 1804.24C 1695.31 1885.73 1644.76 1963.7 1587.51 2036.46C 1496.11 2152.8 1387.47 2255.57 1266.16 2340.27C 1214.26 2376.84 1159.78 2409.65 1103.97 2439.87C 1086.09 2449.05 1068.44 2458.67 1050.23 2467.19C 1027.27 2478.51 1003.96 2489.11 980.5502 2499.46C 980.5803 2499.6 980.6403 2499.87 980.6702 2500L980.6702 2500L980.3302 2500C 980.3602 2499.87 980.4102 2499.62 980.4402 2499.49C 859.3902 2447.12 744.3202 2380.62 639.6402 2300.31C 545.9302 2228.4 460.7602 2145.37 386.5202 2053.5C 289.4502 1933.94 211.0102 1799.69 151.2302 1657.88C 116.8402 1576.79 88.70021 1493.1 65.97021 1408.03C 42.23021 1318.64 24.57021 1227.64 13.26021 1135.84C 5.79 1075.08 1.08 1013.96 0 952.75L0 952.75L0 283.43C 14.27 279.04 28.67 275.11 42.99 270.9M821.95 468.79C 782.47 479.42 743.89 493.75 707.58 512.62C 691.97 520.38 676.73 528.87 661.98 538.15C 630.0601 558.42 599.72 581.27 572.17 607.19C 552.97 624.69 535.5001 643.98 518.78 663.84C 497.91 689.19 479.16 716.3 462.73 744.73C 428.38 804.0001 404.83 869.4401 393.11 936.92C 387.44 971.29 383.8701 1006.17 385.01 1041.04C 385.03 1092.28 391.87 1143.51 405.25 1192.97C 426.27 1270.25 463.28 1343.13 513.39 1405.61C 517.22 1410.26 520.76 1415.4 525.36 1419.24C 525.94 1421.88 528.75 1423.55 530.29 1425.76C 603.21 1509.48 700.39 1571.77 806.98 1602.91C 898.73 1630.22 997.18 1634.12 1090.96 1615.21C 1134.89 1606.17 1177.8 1592.22 1218.59 1573.57C 1291.12 1540.48 1356.69 1492.34 1410.14 1433.2C 1414 1428.51 1418.66 1424.32 1421.94 1419.25C 1423.38 1418.27 1424.51 1416.94 1425.56 1415.58C 1449.95 1386.16 1471.79 1354.57 1490.1 1321.01C 1533.45 1242.42 1558.11 1153.69 1561.91 1064.03C 1562.04 1052.69 1563.25 1041.34 1562.09 1030.03C 1561.47 1005.71 1560.03 981.3801 1556.54 957.2902C 1550.58 911.0702 1538.46 865.7402 1521.54 822.3502C 1507.12 785.4302 1488.59 750.1902 1467.16 716.8702C 1425.88 653.7402 1372.59 598.4702 1310.76 555.2302C 1240.1 505.4502 1158.15 471.8602 1072.94 457.4402C 989.7302 443.5702 903.5402 447.1902 821.9502 468.7902L821.9502 468.7902L42.99 270.9z" stroke="none" fill="#4688F1" fill-rule="nonzero" />
	<g transform="matrix(0.3072 0 0 0.3072 210.7904 0)">
	</g>
    <path transform="matrix(0.3072 0 0 0.3072 210.7904 0)"  d="M821.95 468.79C 903.54 447.19 989.73 443.57 1072.94 457.44C 1158.15 471.86 1240.1 505.45 1310.76 555.23C 1372.59 598.47 1425.88 653.74 1467.16 716.87C 1488.59 750.19 1507.12 785.43 1521.54 822.35C 1538.46 865.74 1550.58 911.0699 1556.54 957.29C 1560.03 981.38 1561.47 1005.71 1562.09 1030.03C 1563.25 1041.34 1562.04 1052.69 1561.91 1064.03C 1558.11 1153.69 1533.45 1242.42 1490.1 1321.01C 1471.79 1354.57 1449.95 1386.16 1425.56 1415.58C 1424.51 1416.94 1423.38 1418.27 1421.94 1419.25C 1419.35 1399.02 1411.81 1379.56 1400.29 1362.75C 1381.6 1335.31 1355.35 1313.97 1327.58 1296.23C 1296.6 1276.65 1263.09 1261.37 1228.86 1248.44C 1184.43 1232.02 1138.55 1219.56 1091.98 1210.89C 1050.12 1203.21 1007.61 1197.95 964.9701 1198.69C 917.8401 1199.8 871.0601 1207.05 825.0501 1217.04C 781.3901 1226.96 738.2801 1239.75 696.8501 1256.82C 663.6501 1270.6 631.2201 1286.81 602.0001 1307.89C 578.5701 1324.76 556.8501 1344.93 541.9601 1369.9C 533.0901 1384.92 526.6602 1401.74 525.3602 1419.24C 520.7602 1415.4 517.2202 1410.26 513.3902 1405.61C 463.2802 1343.13 426.2702 1270.25 405.2502 1192.97C 391.8702 1143.51 385.0302 1092.28 385.0102 1041.04C 383.8702 1006.17 387.4402 971.2898 393.1102 936.9198C 404.8302 869.4398 428.3802 803.9998 462.7302 744.7298C 479.1602 716.2998 497.9102 689.1898 518.7802 663.8398C 535.5002 643.9798 552.9702 624.6898 572.1702 607.1898C 599.7202 581.2698 630.0602 558.4197 661.9802 538.1498C 676.7302 528.8698 691.9702 520.3798 707.5802 512.6198C 743.8902 493.7498 782.4702 479.4197 821.9502 468.7897M964.4502 607.5697C 907.3002 609.5397 851.4902 634.7097 811.9102 675.9397C 774.8102 714.0997 751.9802 765.8097 749.1702 818.9997C 748.2102 843.5697 750.5302 868.3897 757.1502 892.1197C 771.2402 943.5697 804.5602 989.3897 848.9802 1018.88C 884.8402 1042.9 927.7902 1056.2 970.9602 1056.45C 1014.56 1057.08 1058.2 1044.45 1094.82 1020.8C 1125.27 1001.24 1150.82 974.1597 1168.73 942.7297C 1188.59 907.7497 1199.11 867.2596 1197.71 826.9997C 1196.88 788.3797 1186.04 749.9597 1166.12 716.8297C 1146.47 683.8797 1118.25 656.0797 1084.95 637.0197C 1048.62 616.0997 1006.34 605.7497 964.4502 607.5697L964.4502 607.5697L821.95 468.79z" stroke="none" fill="#3566B8" fill-rule="nonzero" />
	<g transform="matrix(0.3072 0 0 0.3072 210.7904 0)">
	</g>
    <path transform="matrix(0.3072 0 0 0.3072 210.7904 0)"  d="M964.45 607.57C 1006.34 605.75 1048.62 616.1 1084.95 637.02C 1118.25 656.08 1146.47 683.88 1166.12 716.83C 1186.04 749.96 1196.88 788.38 1197.71 827C 1199.11 867.26 1188.59 907.75 1168.73 942.73C 1150.82 974.16 1125.27 1001.24 1094.82 1020.8C 1058.2 1044.45 1014.56 1057.08 970.96 1056.45C 927.79 1056.2 884.84 1042.9 848.98 1018.88C 804.56 989.39 771.24 943.5699 757.15 892.1199C 750.53 868.39 748.21 843.5699 749.17 818.9999C 751.98 765.8099 774.81 714.0999 811.91 675.9399C 851.49 634.71 907.3 609.5399 964.45 607.5699L964.45 607.5699L964.45 607.57zM825.05 1217.04C 871.0601 1207.05 917.84 1199.8 964.97 1198.69C 1007.61 1197.95 1050.12 1203.21 1091.98 1210.89C 1138.55 1219.56 1184.43 1232.02 1228.86 1248.44C 1263.09 1261.37 1296.6 1276.65 1327.58 1296.23C 1355.35 1313.97 1381.6 1335.31 1400.29 1362.75C 1411.81 1379.56 1419.35 1399.02 1421.94 1419.25C 1418.66 1424.32 1414 1428.51 1410.14 1433.2C 1356.69 1492.34 1291.12 1540.48 1218.59 1573.57C 1177.8 1592.22 1134.89 1606.17 1090.96 1615.21C 997.1798 1634.12 898.7299 1630.22 806.9799 1602.91C 700.3899 1571.77 603.2098 1509.48 530.2899 1425.76C 528.7499 1423.55 525.9399 1421.88 525.3599 1419.24C 526.6599 1401.74 533.0898 1384.92 541.9598 1369.9C 556.8499 1344.93 578.5698 1324.76 601.9998 1307.89C 631.2198 1286.81 663.6498 1270.6 696.8498 1256.82C 738.2798 1239.75 781.3898 1226.96 825.0498 1217.04z" stroke="none" fill="#FFFFFF" fill-rule="nonzero" />
</g>
</svg>