<?xml version="1.0" standalone="no"?>
<!DOCTYPE svg PUBLIC "-//W3C//DTD SVG 1.0//EN" "http://www.w3.org/TR/2001/REC-SVG-20010904/DTD/svg10.dtd">
<svg xmlns="http://www.w3.org/2000/svg" xmlns:xlink="http://www.w3.org/1999/xlink" id="body_1" width="32" height="32">

<g transform="matrix(0.0128 0 0 0.0128 0 0)">
	<g transform="matrix(5.599607 0 0 5.599607 -414.3708 -1103.122)">
	</g>
    <path transform="matrix(5.599607 0 0 5.599607 -414.3708 -1103.122)"  d="M130.218 253.522L465.063 253.522L465.063 588.367L130.218 588.367L130.218 253.522z" stroke="none" fill="#FFFFFF" fill-rule="nonzero" />
	<g transform="matrix(5.599607 0 0 5.599607 -414.3708 -1103.122)">
	</g>
    <path transform="matrix(5.599607 0 0 5.599607 -414.3708 -1103.122)"  d="M142.309 197.715C 104.174 197.715 74.411 227.479 74.411 265.614L74.411 265.614L74.411 577.2061C 74.411 614.4111 104.175 644.175 142.309 644.175L142.309 644.175L453.901 644.175C 491.106 644.175 520.871 614.4111 520.871 577.2061L520.871 577.2061L520.871 265.614C 520.871 227.479 491.106 197.715 453.901 197.715L453.901 197.715L142.309 197.715zM307.871 285.146C 345.076 285.146 386.002 330.722 386.002 361.417L386.002 361.417L386.002 373.509C 386.002 380.95 393.442 388.391 401.814 388.391L401.814 388.391L422.277 388.391C 428.788 388.391 436.229 396.762 436.229 405.133L436.229 405.133L436.229 475.822C 434.369 526.049 388.792 558.603 351.587 558.603L351.587 558.603L252.064 558.603C 200.908 558.603 161.842 516.748 161.842 474.892L161.842 474.892L161.842 366.998C 163.702 324.212 200.907 285.147 246.484 285.147L246.484 285.147L307.871 285.147zM249.274 355.836C 227.881 356.766 224.161 387.46 251.134 388.39L251.134 388.39L301.361 388.39C 321.824 387.46 319.033 356.766 302.291 355.836L302.291 355.836L249.274 355.836zM245.553 455.359C 226.95 456.29 226.95 485.124 245.553 486.984L245.553 486.984L348.797 486.984C 369.26 484.193 369.26 455.359 348.797 455.359L348.797 455.359L245.553 455.359z" stroke="none" fill="#F57D00" fill-rule="nonzero" />
</g>
</svg>