<?xml version="1.0" standalone="no"?>
<!DOCTYPE svg PUBLIC "-//W3C//DTD SVG 1.0//EN" "http://www.w3.org/TR/2001/REC-SVG-20010904/DTD/svg10.dtd">
<svg xmlns="http://www.w3.org/2000/svg" xmlns:xlink="http://www.w3.org/1999/xlink" id="body_1" width="32" height="28">

<defs>
    <linearGradient transform="matrix(1 0 0 1 0 0)"  id="1" x1="0" y1="49.999" x2="99.999" y2="49.999">
        <stop stop-color="#4079D8" offset="0%"/>
        <stop stop-color="#4989F5" offset="100%"/>
    </linearGradient>
</defs>

<g transform="matrix(0.0128 0 0 0.01281465 0 0)">
	<g transform="matrix(2.349624 0 0 2.349624 0 1.463783)">
	</g>
    <path transform="matrix(2.349624 0 0 2.349624 0 1.463783)"  d="M53.45 269.86C 53.45 249.4917 69.96174 232.98 90.33 232.98L90.33 232.98L947.57 232.98C 967.9382 232.98 984.45 249.4917 984.45 269.86L984.45 269.86L984.45 892.24C 984.45 912.6083 967.9382 929.12 947.57 929.12L947.57 929.12L90.33 929.12C 69.96174 929.12 53.45 912.6083 53.45 892.24L53.45 892.24L53.45 269.86z" stroke="none" fill="#4989F5" fill-rule="nonzero" />
	<g transform="matrix(2.349624 0 0 2.349624 0 1.463783)">
	</g>
    <path transform="matrix(2.349624 0 0 2.349624 0 1.463783)"  d="M936.81 227.75L100.06 227.75C 74.14 227.75 53.97 428.35 53.97 454.27L53.97 454.27L512.2 929.12L936.81 929.12C 962.81 929.049 983.869 907.99 983.94 881.99L983.94 881.99L983.94 274.87C 983.863 248.874 962.806 227.821 936.81 227.75z" stroke="none" fill="url(#1)" />
	<g transform="matrix(2.349624 0 0 2.349624 0 1.463783)">
	</g>
    <path transform="matrix(2.349624 0 0 2.349624 0 1.463783)"  d="M266.03 349.56L532.03 349.56L532.03 0.44L305.86 0.44L266.03 349.56z" stroke="none" fill="#3C4BA6" fill-rule="nonzero" />
	<g transform="matrix(2.349624 0 0 2.349624 0 1.463783)">
	</g>
    <path transform="matrix(2.349624 0 0 2.349624 0 1.463783)"  d="M798.03 349.56L532.03 349.56L532.03 0.44L758.2 0.44L798.03 349.56zM984.45 66.62L984.78 67.81001C 984.7 67.39001 984.54 67.00001 984.45 66.62z" stroke="none" fill="#7BABF7" fill-rule="nonzero" />
	<g transform="matrix(2.349624 0 0 2.349624 0 1.463783)">
	</g>
    <path transform="matrix(2.349624 0 0 2.349624 0 1.463783)"  d="M984.78 67.8L984.45 66.61C 976.017 27.993 941.837 0.455 902.31 0.43L902.31 0.43L758.2 0.43L798 349.56L1064 349.56L984.78 67.8z" stroke="none" fill="#3F51B5" fill-rule="nonzero" />
	<g transform="matrix(2.349624 0 0 2.349624 0 1.463783)">
	</g>
    <path transform="matrix(2.349624 0 0 2.349624 0 1.463783)"  d="M79.61 66.62L79.28 67.81001C 79.36 67.39001 79.52 67.00001 79.61 66.62z" stroke="none" fill="#7BABF7" fill-rule="nonzero" />
	<g transform="matrix(2.349624 0 0 2.349624 0 1.463783)">
	</g>
    <path transform="matrix(2.349624 0 0 2.349624 0 1.463783)"  d="M79.27 67.8L79.6 66.61C 88.033 27.993 122.213 0.455 161.74 0.43L161.74 0.43L305.86 0.43L266 349.56L0 349.56L79.27 67.8z" stroke="none" fill="#7BABF7" fill-rule="nonzero" />
	<g transform="matrix(2.349624 0 0 2.349624 0 1.463783)">
	</g>
    <path transform="matrix(2.349624 0 0 2.349624 0 1.463783)"  d="M266.48 349.47C 266.48 422.882 206.967 482.395 133.555 482.395C 60.14301 482.395 0.63 422.882 0.63 349.47L0.63 349.47L266.48 349.47z" stroke="none" fill="#709BE0" fill-rule="nonzero" />
	<g transform="matrix(2.349624 0 0 2.349624 0 1.463783)">
	</g>
    <path transform="matrix(2.349624 0 0 2.349624 0 1.463783)"  d="M532.33 349.47C 532.33 422.882 472.817 482.395 399.405 482.395C 325.993 482.395 266.48 422.882 266.48 349.47L266.48 349.47L532.33 349.47z" stroke="none" fill="#3C4BA6" fill-rule="nonzero" />
	<g transform="matrix(2.349624 0 0 2.349624 0 1.463783)">
	</g>
    <path transform="matrix(2.349624 0 0 2.349624 0 1.463783)"  d="M798.18 349.47C 798.18 422.882 738.667 482.395 665.255 482.395C 591.843 482.395 532.33 422.882 532.33 349.47L532.33 349.47L798.18 349.47z" stroke="none" fill="#709BE0" fill-rule="nonzero" />
	<g transform="matrix(2.349624 0 0 2.349624 0 1.463783)">
	</g>
    <path transform="matrix(2.349624 0 0 2.349624 0 1.463783)"  d="M1064 349.47C 1064 422.882 1004.487 482.395 931.075 482.395C 857.663 482.395 798.15 422.882 798.15 349.47L798.15 349.47L1064 349.47z" stroke="none" fill="#3C4BA6" fill-rule="nonzero" />
	<g transform="matrix(2.349624 0 0 2.349624 0 1.463783)">
	</g>
    <path transform="matrix(2.349624 0 0 2.349624 0 1.463783)"  d="M931.08 709.6C 930.61 703.27 929.83 697.49 928.72 690.11L928.72 690.11L783.72 690.11C 783.72 710.39 783.72 732.52 783.64 752.81L783.64 752.81L867.64 752.81C 864.0358 771.9083 852.9696 788.783 836.89 799.7C 836.89 799.7 836.89 799.35 836.83 799.34C 826.5486 806.0908 814.9662 810.6114 802.83 812.61C 790.6627 814.8359 778.1877 814.7816 766.04 812.4501C 753.7051 809.8972 742.0267 804.8358 731.73 797.5801C 716.5316 786.8024 704.8091 771.8234 698.0001 754.4801C 697.48 753.1301 697.0001 751.7701 696.5101 750.3901L696.5101 750.3901L696.5101 750.2401L696.6401 750.1401C 690.0314 730.7437 690.0139 709.7076 696.5901 690.3C 701.2222 676.6856 708.8455 664.2818 718.9 654C 742.487 629.601 777.729 620.424 810.22 630.22C 822.6786 634.041 834.0624 640.7418 843.45 649.78L843.45 649.78L871.79 621.4399C 876.79 616.39 881.98 611.4999 886.79 606.28C 872.42 592.8762 855.553 582.4311 837.15 575.54C 803.6581 563.3958 767.0195 563.0747 733.32 574.63C 732.147 575.03 730.98 575.447 729.82 575.88C 693.4635 589.5478 663.5544 616.3525 646 651C 639.8012 663.2636 635.2871 676.3081 632.58 689.78C 616.528 769.552 665.203 848.074 743.79 869.1801C 769.48 876.0601 796.79 875.8901 822.6801 870.0101C 846.2031 864.6989 867.9535 853.3965 885.8201 837.2001C 904.4601 820.05 917.8201 797.2001 924.8201 772.9301C 930.6727 752.3633 932.7928 730.9145 931.0801 709.6L931.0801 709.6L931.08 709.6z" stroke="none" fill="#FFFFFF" fill-rule="nonzero" />
</g>
</svg>