<?xml version="1.0" standalone="no"?>
<!DOCTYPE svg PUBLIC "-//W3C//DTD SVG 1.0//EN" "http://www.w3.org/TR/2001/REC-SVG-20010904/DTD/svg10.dtd">
<svg xmlns="http://www.w3.org/2000/svg" xmlns:xlink="http://www.w3.org/1999/xlink" id="body_1" width="32" height="24">

<g transform="matrix(0.03125 0 0 0.03125 0 0)">
	<g transform="matrix(10.10526 0 0 10.10526 -1751.579 -384)">
	</g>
    <path transform="matrix(10.10526 0 0 10.10526 -1751.579 -384)"  d="M244 56L204 56L204 96L244 96L244 56z" stroke="none" fill="#FFFFFF" fill-rule="nonzero" />
	<g transform="matrix(10.10526 0 0 10.10526 -1751.579 -384)">
	</g>
    <path transform="matrix(10.10526 0 0 10.10526 -1751.579 -384)"  d="M244 114L262 96L244 96L244 114z" stroke="none" fill="#EA4335" fill-rule="nonzero" />
	<g transform="matrix(10.10526 0 0 10.10526 -1751.579 -384)">
	</g>
    <path transform="matrix(10.10526 0 0 10.10526 -1751.579 -384)"  d="M262 56L244 56L244 96L262 96L262 56z" stroke="none" fill="#FBBC04" fill-rule="nonzero" />
	<g transform="matrix(10.10526 0 0 10.10526 -1751.579 -384)">
	</g>
    <path transform="matrix(10.10526 0 0 10.10526 -1751.579 -384)"  d="M244 96L204 96L204 114L244 114L244 96z" stroke="none" fill="#34A853" fill-rule="nonzero" />
	<g transform="matrix(10.10526 0 0 10.10526 -1751.579 -384)">
	</g>
    <path transform="matrix(10.10526 0 0 10.10526 -1751.579 -384)"  d="M186 96L186 108C 186 111.315 188.685 114 192 114L192 114L204 114L204 96L186 96z" stroke="none" fill="#188038" fill-rule="nonzero" />
	<g transform="matrix(10.10526 0 0 10.10526 -1751.579 -384)">
	</g>
    <path transform="matrix(10.10526 0 0 10.10526 -1751.579 -384)"  d="M262 56L262 44C 262 40.685 259.315 38 256 38L256 38L244 38L244 56L262 56z" stroke="none" fill="#1967D2" fill-rule="nonzero" />
	<g transform="matrix(10.10526 0 0 10.10526 -1751.579 -384)">
	</g>
    <path transform="matrix(10.10526 0 0 10.10526 -1751.579 -384)"  d="M244 38L192 38C 188.685 38 186 40.685 186 44L186 44L186 96L204 96L204 56L244 56L244 38z" stroke="none" fill="#4285F4" fill-rule="nonzero" />
	<g transform="matrix(10.10526 0 0 10.10526 -1751.579 -384)">
	</g>
    <path transform="matrix(10.10526 0 0 10.10526 -1751.579 -384)"  d="M212.205 87.03C 210.71 86.02 209.675 84.545 209.11 82.595L209.11 82.595L212.58 81.165C 212.895 82.365 213.445 83.295 214.23 83.955C 215.01 84.61501 215.96 84.94 217.07 84.94C 218.205 84.94 219.18 84.595 219.995 83.905C 220.81 83.215 221.22 82.335 221.22 81.27C 221.22 80.18 220.79 79.28999 219.93 78.6C 219.07 77.91 217.99 77.56499 216.7 77.56499L216.7 77.56499L214.695 77.56499L214.695 74.13L216.495 74.13C 217.605 74.13 218.54 73.82999 219.3 73.23C 220.06 72.63 220.44 71.81 220.44 70.765C 220.44 69.835 220.1 69.095 219.42 68.54C 218.74 67.985 217.88 67.705 216.835 67.705C 215.815 67.705 215.005 67.975 214.405 68.52C 213.8054 69.06646 213.3546 69.75642 213.095 70.525L213.095 70.525L209.66 69.095C 210.115 67.805 210.95 66.665 212.175 65.68C 213.4 64.695 214.965 64.2 216.865 64.2C 218.27 64.2 219.535 64.46999 220.655 65.015C 221.775 65.56 222.655 66.315 223.29 67.275C 223.925 68.24 224.24 69.32 224.24 70.52C 224.24 71.745 223.945 72.78001 223.355 73.63C 222.765 74.48 222.04 75.13 221.18 75.58501L221.18 75.58501L221.18 75.79001C 222.2904 76.24784 223.255 76.99982 223.97 77.96501C 224.695 78.94001 225.06 80.10501 225.06 81.46501C 225.06 82.82501 224.715 84.04001 224.025 85.10501C 223.335 86.17001 222.38 87.01001 221.17 87.62001C 219.955 88.23001 218.59 88.54001 217.075 88.54001C 215.32 88.54501 213.7 88.04001 212.205 87.03001L212.205 87.03001L212.205 87.03zM233.52 69.81L229.71 72.56499L227.805 69.675L234.64 64.745L237.26 64.745L237.26 88L233.52 88L233.52 69.81z" stroke="none" fill="#4285F4" fill-rule="nonzero" />
</g>
</svg>