<?xml version="1.0" standalone="no"?>
<!DOCTYPE svg PUBLIC "-//W3C//DTD SVG 1.0//EN" "http://www.w3.org/TR/2001/REC-SVG-20010904/DTD/svg10.dtd">
<svg xmlns="http://www.w3.org/2000/svg" xmlns:xlink="http://www.w3.org/1999/xlink" id="body_1" width="32" height="32">

<g transform="matrix(0.0128 0 0 0.0128 0 0)">
	<g transform="matrix(4.960318 0 0 4.960318 -20.06198 -19.84127)">
	</g>
    <path transform="matrix(4.960318 0 0 4.960318 -20.06198 -19.84127)"  d="M108.733 4C 89.907 4 74.644 19.256 74.644 38.213L74.644 38.213L74.644 508L222.556 439.733L370.466 508L370.466 38.213C 370.467 19.256 385.73 4 404.645 4L404.645 4L108.733 4z" stroke="none" fill="#FFC517" fill-rule="nonzero" />
	<g transform="matrix(4.960318 0 0 4.960318 -20.06198 -19.84127)">
	</g>
    <path transform="matrix(4.960318 0 0 4.960318 -20.06198 -19.84127)"  d="M438.733 38.213C 438.733 19.318 423.553 4 404.644 4C 385.729 4 370.467 19.256 370.467 38.213L370.467 38.213L370.467 404.6L438.733 438.733L438.733 38.213z" stroke="none" fill="#EEA90F" fill-rule="nonzero" />
	<g transform="matrix(4.960318 0 0 4.960318 -20.06198 -19.84127)">
	</g>
    <path transform="matrix(4.960318 0 0 4.960318 -20.06198 -19.84127)"  d="M289.235 230.521L224.143 230.521L224.143 256.897L261.61 256.897C 258.118 273.653 243.512 283.273 224.143 283.273C 201.282 283.273 182.866 265.275 182.866 242.933C 182.866 220.592 201.282 202.593 224.143 202.593C 233.986 202.593 242.877 206.007 249.863 211.593L249.863 211.593L270.183 191.733C 257.8 181.183 241.924 174.667 224.143 174.667C 185.406 174.667 154.289 205.077 154.289 242.933C 154.289 280.79 185.406 311.2 224.143 311.2C 259.07 311.2 290.823 286.376 290.823 242.933C 290.823 238.899 290.187 234.555 289.235 230.521z" stroke="none" fill="#FFFFFF" fill-rule="nonzero" />
</g>
</svg>