<?xml version="1.0" standalone="no"?>
<!DOCTYPE svg PUBLIC "-//W3C//DTD SVG 1.0//EN" "http://www.w3.org/TR/2001/REC-SVG-20010904/DTD/svg10.dtd">
<svg xmlns="http://www.w3.org/2000/svg" xmlns:xlink="http://www.w3.org/1999/xlink" id="body_1" width="32" height="24">

<g transform="matrix(0.03125 0 0 0.03125 0 0)">
	<g transform="matrix(1.536 0 0 1.536 128 0)">
	</g>
    <path transform="matrix(1.536 0 0 1.536 128 0)"  d="M500 250C 500 180.9644 475.5922 122.0388 426.7767 73.22331C 377.9612 24.40777 319.0356 0 250 0C 180.9644 0 122.0388 24.40777 73.22331 73.22331C 24.40777 122.0388 0 180.9644 0 250C 0 319.0356 24.40777 377.9612 73.22331 426.7767C 122.0388 475.5922 180.9644 500 250 500C 319.0356 500 377.9612 475.5922 426.7767 426.7767C 475.5922 377.9612 500 319.0356 500 250" stroke="none" fill="#1A73E8" fill-rule="nonzero" />
	<g transform="matrix(1.536 0 0 1.536 128 0)">
	</g>
    <path transform="matrix(1.536 0 0 1.536 128 0)"  d="M332.4 375L170.5 375C 150.9 375 133.6 363.2 133.6 343.8L133.6 343.8L133.6 358C 133.6 377.4 150.9 392.1 170.5 392.1L170.5 392.1L332.4 392.1C 352 392.1 369.3 377.4 369.3 358L369.3 358L369.3 343.8C 369.3 363.2 352 375 332.4 375z" stroke="none" fill="#185ABC" fill-rule="nonzero" />
	<g transform="matrix(1.536 0 0 1.536 128 0)">
	</g>
    <path transform="matrix(1.536 0 0 1.536 128 0)"  d="M250 227.3C 220.7 227.2 197.6 206.9 196 179L196 179L196 190.4C 196 219.3 220.2 244.4 250 244.4C 279.8 244.4 304 219.3 304 190.4L304 190.4L304 179C 301.7 207.1 279.3 227.4 250 227.3z" stroke="none" fill="#185ABC" fill-rule="nonzero" />
	<g transform="matrix(1.536 0 0 1.536 128 0)">
	</g>
    <path transform="matrix(1.536 0 0 1.536 128 0)"  d="M250 261.4C 193 261.4 133.5 289.2 133.5 326.7L133.5 326.7L133.5 343.7C 133.5 363.1 149.4 377.8 169 377.8L169 377.8L333.7 377.8C 353.3 377.8 369.2 363.1 369.2 343.7L369.2 343.7L369.2 326.7C 369.3 289.1 307 261.4 250 261.4z" stroke="none" fill="#FFFFFF" fill-rule="nonzero" />
	<g transform="matrix(1.536 0 0 1.536 128 0)">
	</g>
    <path transform="matrix(1.536 0 0 1.536 128 0)"  d="M304 176.1C 304 161.1883 298.7279 148.4604 288.1838 137.9162C 277.6396 127.3721 264.9117 122.1 250 122.1C 235.0883 122.1 222.3604 127.3721 211.8162 137.9162C 201.2721 148.4604 196 161.1883 196 176.1C 196 191.0117 201.2721 203.7396 211.8162 214.2838C 222.3604 224.8279 235.0883 230.1 250 230.1C 264.9117 230.1 277.6396 224.8279 288.1838 214.2838C 298.7279 203.7396 304 191.0117 304 176.1" stroke="none" fill="#FFFFFF" fill-rule="nonzero" />
</g>
</svg>