<?xml version="1.0" standalone="no"?>
<!DOCTYPE svg PUBLIC "-//W3C//DTD SVG 1.0//EN" "http://www.w3.org/TR/2001/REC-SVG-20010904/DTD/svg10.dtd">
<svg xmlns="http://www.w3.org/2000/svg" xmlns:xlink="http://www.w3.org/1999/xlink" id="body_1" width="32" height="24">

<g transform="matrix(0.03125 0 0 0.03125 0 0)">
	<g transform="matrix(0.4383562 0 0 0.4383562 128.7452 0)">
	</g>
    <path transform="matrix(0.4383562 0 0 0.4383562 128.7452 0)"  d="M1748.6 876C 1748.6 1359.8 1356.8 1751.6 873.9 1751.6C 390.9999 1751.6 0 1359.8 0 876C 0 392.2 391.4 0 874.3 0C 1357.2 0 1748.6 392.2 1748.6 876z" stroke="none" fill="#F5F5F5" fill-rule="nonzero" />
	<g transform="matrix(0.4383562 0 0 0.4383562 128.7452 0)">
	</g>
    <path transform="matrix(0.4383562 0 0 0.4383562 128.7452 0)"  d="M733.8 30.9C 691.3 31.3 645.7 35.6 598.5 44.6C 250.5 160.7 0 488.9 0 876C 0 1359.8 391.4 1752 874.3 1752C 1357.2 1752 1748.6 1359.3 1748.6 875.6C 1748.6 796.1 1737.4 719.2 1717.7 645.8C 1649.8 659.5 1572.5 660.8 1512.3 600.3C 1377.4 464.9 1172.9 29.2 733.8 30.9z" stroke="none" fill="#C6E2FF" fill-rule="nonzero" />
	<g transform="matrix(0.4383562 0 0 0.4383562 128.7452 0)">
	</g>
    <path transform="matrix(0.4383562 0 0 0.4383562 128.7452 0)"  d="M574 171.8C 461.9 172.7 333.4 208.7 233.3 280.1C 88.5 436.5 0 645.7 0 875.6C 0 1359.4 391.4 1751.6 874.3 1751.6C 1357.2 1751.6 1748.6 1359.4 1748.6 875.6C 1748.6 868.7 1748.2 861.9 1748.2 855.4C 1636.9 946.9 1442.7 942.6 1329.7 826.9999C 1119.6 605.8 1004 265.5 670.2 181.7C 640.6 175.3 608.3 171.8 574 171.8z" stroke="none" fill="#98C3FF" fill-rule="nonzero" />
	<g transform="matrix(0.4383562 0 0 0.4383562 128.7452 0)">
	</g>
    <path transform="matrix(0.4383562 0 0 0.4383562 128.7452 0)"  d="M374.6 510.4C 173.6 510.4 36.5 632.8 1.7 824C 0.9 841.2 0 858.4 0 875.6C 0 1359.4 391.4 1751.6 874.3 1751.6C 1291.5 1751.6 1640.3 1459 1727.5 1067.6C 1600.3 1284.1 1330.1 1344.3 1069.7 1123.5C 758.3 824.9 745.8 523.7 374.6 510.4z" stroke="none" fill="#4F8EF5" fill-rule="nonzero" />
	<g transform="matrix(0.4383562 0 0 0.4383562 128.7452 0)">
	</g>
    <path transform="matrix(0.4383562 0 0 0.4383562 128.7452 0)"  d="M269.4 952C 156 959.8 70.9 1057.7 75.2 1230.4C 210.9 1537.6 517.3 1752 874.3 1752C 1154.8 1752 1404 1619.7 1563.8 1414.3C 1407.4 1542.3 1089.1 1612.8 792.2001 1375.6C 574 1173.3 497.9 946.9 269.4 952z" stroke="none" fill="#2D65DC" fill-rule="nonzero" />
</g>
</svg>