<?xml version="1.0" standalone="no"?>
<!DOCTYPE svg PUBLIC "-//W3C//DTD SVG 1.0//EN" "http://www.w3.org/TR/2001/REC-SVG-20010904/DTD/svg10.dtd">
<svg xmlns="http://www.w3.org/2000/svg" xmlns:xlink="http://www.w3.org/1999/xlink" id="body_1" width="32" height="24">

<defs>
    <radialGradient cx="1271.671%" cy="152.7725%" r="-15646.61%" gradientUnits="objectBoundingBox" id="1">
        <stop offset="0%" stop-color="#FFFFFF" stop-opacity="1"/>
        <stop offset="100%" stop-color="#FFFFFF" stop-opacity="0"/>
    </radialGradient>
<mask id="264">
<path  transform="matrix(1 0 0 1 0 0)"   d="M135.5314 1634.427C 135.5314 1637.847 134.1715 1641.13 131.7534 1643.548C 129.3353 1645.967 126.0521 1647.327 122.6324 1647.327C 119.2127 1647.327 115.9295 1645.967 113.5114 1643.548C 111.0933 1641.13 109.7334 1637.847 109.7334 1634.427C 109.7334 1631.008 111.0933 1627.725 113.5114 1625.307C 115.9295 1622.888 119.2127 1621.528 122.6324 1621.528C 126.0521 1621.528 129.3353 1622.888 131.7534 1625.307C 134.1715 1627.725 135.5314 1631.008 135.5314 1634.427z" fill="white"/>
</mask>
</defs>

<g transform="matrix(0.03125 0 0 0.03125 0 0)">
	<g transform="matrix(0.3072 0 0 0.3072 219.4227 0)">
	</g>
    <path transform="matrix(0.3072 0 0 0.3072 219.4227 0)"  d="M1190.5 0L178.6 0C 83.3 0 0 83.3 0 178.6L0 178.6L0 2321.5C 0 2416.7 83.3 2500.1 178.6 2500.1L178.6 2500.1L1726.2 2500.1C 1821.4 2500.1 1904.8 2416.8 1904.8 2321.5L1904.8 2321.5L1904.8 714.3L1488.1 416.7L1190.5 0z" stroke="none" fill="#673AB7" fill-rule="nonzero" />
	<g transform="matrix(0.3072 0 0 0.3072 219.4227 0)">
	</g>
    <path transform="matrix(0.3072 0 0 0.3072 219.4227 0)"  d="M714.3 1845.2L1428.6 1845.2L1428.6 1726.2L714.3 1726.2L714.3 1845.2zM714.3 1071.4L714.3 1190.4L1428.6 1190.4L1428.6 1071.4L714.3 1071.4zM607.1 1131C 607.1 1178.6 571.4 1226.2 511.9 1226.2C 452.4 1226.2 416.7 1190.5 416.7 1131C 416.7 1071.5 452.4 1035.8 511.9 1035.8C 571.4 1035.8 607.1 1083.3 607.1 1131zM607.1 1464.3C 607.1 1511.9 571.4 1559.5 511.9 1559.5C 452.4 1559.5 416.7 1523.8 416.7 1464.3C 416.7 1404.8 452.4 1369.1 511.9 1369.1C 571.4 1369.1 607.1 1416.7 607.1 1464.3zM607.1 1785.7C 607.1 1833.3 571.4 1880.9 511.9 1880.9C 452.4 1880.9 416.7 1845.2 416.7 1785.7C 416.7 1726.2 452.4 1690.5 511.9 1690.5C 571.4 1690.5 607.1 1738.1 607.1 1785.7zM714.3 1547.6L1428.6 1547.6L1428.6 1428.5L714.3 1428.5L714.3 1547.6z" stroke="none" fill="#F1F1F1" fill-rule="nonzero" />
	<g transform="matrix(0.3072 0 0 0.3072 219.4227 0)">
	</g>
    <path transform="matrix(0.3072 0 0 0.3072 219.4227 0)"  d="M1238.1 666.7L1904.8 1321.5L1904.8 714.3L1238.1 666.7z" stroke="none" fill="none" />
	<g transform="matrix(0.3072 0 0 0.3072 219.4227 0)">
	</g>
    <path transform="matrix(0.3072 0 0 0.3072 219.4227 0)"  d="M1190.5 0L1190.5 535.7C 1190.5 630.9 1273.8 714.3 1369.1 714.3L1369.1 714.3L1904.8 714.3L1190.5 0z" stroke="none" fill="#B39DDB" fill-rule="nonzero" />
	<g transform="matrix(0.3072 0 0 0.3072 219.4227 0)">
	</g>
    <path transform="matrix(0.3072 0 0 0.3072 219.4227 0)"  d="M178.6 0C 83.3 0 0 83.3 0 178.6L0 178.6L0 190.5C 0 95.2 83.3 11.9 178.6 11.9L178.6 11.9L1190.5 11.9L1190.5 0L178.6 0z" stroke="none" fill="#FFFFFF" fill-rule="nonzero" fill-opacity="0.2" />
	<g transform="matrix(0.3072 0 0 0.3072 219.4227 0)">
	</g>
    <path transform="matrix(0.3072 0 0 0.3072 219.4227 0)"  d="M1726.2 2488.1L178.6 2488.1C 83.3 2488.1 0 2404.8 0 2309.5L0 2309.5L0 2321.4C 0 2416.6 83.3 2500 178.6 2500L178.6 2500L1726.2 2500C 1821.4 2500 1904.8 2416.7 1904.8 2321.4L1904.8 2321.4L1904.8 2309.5C 1904.8 2404.8 1821.4 2488.1 1726.2 2488.1z" stroke="none" fill="#311B92" fill-rule="nonzero" fill-opacity="0.2" />
	<g transform="matrix(0.3072 0 0 0.3072 219.4227 0)">
	</g>
    <path transform="matrix(0.3072 0 0 0.3072 219.4227 0)"  d="M1369 714.3C 1273.8 714.3 1190.4 631 1190.4 535.7L1190.4 535.7L1190.4 547.6C 1190.4 642.8 1273.7 726.2 1369 726.2L1369 726.2L1904.7 726.2L1904.7 714.2999L1369 714.3z" stroke="none" fill="#311B92" fill-rule="nonzero" fill-opacity="0.09803922" />
	<g transform="matrix(0.3072 0 0 0.3072 219.4227 0)">
	</g>
    <path transform="matrix(0.3072 0 0 0.3072 219.4227 0)"  d="M1190.5 0L178.6 0C 83.3 0 0 83.3 0 178.6L0 178.6L0 2321.5C 0 2416.7 83.3 2500.1 178.6 2500.1L178.6 2500.1L1726.2 2500.1C 1821.4 2500.1 1904.8 2416.8 1904.8 2321.5L1904.8 2321.5L1904.8 714.3L1190.5 0z" stroke="none" mask="url(#264)" fill="url(#1)"  />
</g>
</svg>