<?xml version="1.0" standalone="no"?>
<!DOCTYPE svg PUBLIC "-//W3C//DTD SVG 1.0//EN" "http://www.w3.org/TR/2001/REC-SVG-20010904/DTD/svg10.dtd">
<svg xmlns="http://www.w3.org/2000/svg" xmlns:xlink="http://www.w3.org/1999/xlink" id="body_1" width="16" height="32">

<defs>
    <linearGradient transform="matrix(1 0 0 1 0 0)"  id="1" x1="110.03" y1="145.91" x2="110.03" y2="26.513">
        <stop stop-color="#1A73E8" offset="0%"/>
        <stop stop-color="#4285F4" offset="100%"/>
    </linearGradient>
</defs>

<g transform="matrix(0.5 0 0 0.4923077 0 0)">
	<g transform="matrix(0.3661746 0 0 0.3692972 -15.4306 -2.585081)">
	</g>
    <path transform="matrix(0.3661746 0 0 0.3692972 -15.4306 -2.585081)"  d="M129.53 144.99L129.53 163.45C 129.53 174.25 120.8 183.01 110.03 183.01C 99.25999 183.01 90.53 174.26 90.53 163.45L90.53 163.45L90.53 115.12L129.53 144.99z" stroke="none" fill="#34A853" fill-rule="nonzero" />
	<g transform="matrix(0.3661746 0 0 0.3692972 -15.4306 -2.585081)">
	</g>
    <path transform="matrix(0.3661746 0 0 0.3692972 -15.4306 -2.585081)"  d="M129.53 26.56L129.53 144.99L90.53 115.12L90.53 68.02L122.44 41.64001C 127.12 37.78001 129.53 32.19001 129.53 26.56001L129.53 26.56001L129.53 26.56z" stroke="none" fill="url(#1)" />
	<g transform="matrix(0.3661746 0 0 0.3692972 -15.4306 -2.585081)">
	</g>
    <path transform="matrix(0.3661746 0 0 0.3692972 -15.4306 -2.585081)"  d="M129.52 25.88C 129.53 26.1 129.53 26.32 129.53 26.55C 129.53 32.18 127.12 37.77 122.44 41.63L122.44 41.63L90.53 68.00999L90.53 26.55999C 90.53 20.15999 93.6 14.45999 98.37 10.88999C 98.70999 10.62999 99.05 10.38999 99.42 10.15999C 99.59 10.04999 99.75 9.939994 99.92 9.839994C 100.23 9.639995 100.56 9.459994 100.86 9.299994L100.86 9.299994L101.72 8.869994L102.44 8.539994C 102.73 8.419994 103.02 8.299994 103.33 8.189994C 103.62 8.079994 103.93 7.979994 104.23 7.879994C 104.79 7.709994 105.36 7.549994 105.95 7.429994C 106.12 7.389994 106.3 7.359994 106.49 7.319994C 106.62 7.299994 106.75 7.279994 106.88 7.259994C 107.11 7.219994 107.34 7.189994 107.57 7.159994C 107.84 7.119994 108.11 7.089994 108.39 7.069994C 108.61 7.049994 108.83 7.029994 109.05 7.019994C 109.37 7.009994 109.7 6.999994 110.03 6.999994L110.03 6.999994L110.04 6.999994C 110.75 6.999994 111.44 7.039994 112.14 7.109994C 112.48 7.149994 112.83 7.199994 113.19 7.259994C 113.53 7.309994 113.87 7.379994 114.23 7.459994C 114.57 7.529994 114.91 7.619994 115.25 7.719994C 115.53 7.789994 115.82 7.879993 116.1 7.979994C 116.65 8.159994 117.2 8.359994 117.72 8.589993C 117.98 8.699993 118.24 8.819993 118.5 8.939994C 118.83 9.099994 119.16 9.269994 119.48 9.439994C 119.96 9.709994 120.42 9.989994 120.88 10.29999C 120.93 10.33999 120.98 10.36999 121.03 10.39999C 121.52 10.73999 121.99 11.10999 122.46 11.48999C 122.69 11.68999 122.92 11.87999 123.15 12.08999L123.15 12.08999L123.17 12.10999C 123.39 12.31999 123.61 12.52999 123.83 12.75C 124.05 12.97 124.27 13.2 124.48 13.42C 124.91 13.88 125.3 14.37 125.67 14.87C 125.93 15.21 126.17 15.56999 126.4 15.92C 126.51 16.08999 126.62 16.25 126.72 16.41999C 126.92 16.72999 127.1 17.05999 127.26 17.35999C 127.38 17.59999 127.57 17.98999 127.69 18.22C 127.8 18.46 127.91 18.7 128.01 18.93999C 128.13 19.23 128.25 19.52999 128.36 19.82999C 128.47 20.12 128.5701 20.42999 128.66 20.72999C 128.7901 21.15999 128.9001 21.58999 129 22.00999C 129.06 22.21 129.1001 22.39999 129.1301 22.59999C 129.19 22.88 129.2401 23.14999 129.2901 23.41999C 129.33 23.63999 129.3501 23.85999 129.3801 24.07999C 129.42 24.34999 129.4501 24.62 129.47 24.89999C 129.4901 25.11999 129.51 25.33999 129.5201 25.55999C 129.5101 25.65999 129.5201 25.76999 129.5201 25.87999L129.5201 25.87999L129.52 25.88z" stroke="none" fill="#EA4335" fill-rule="nonzero" />
	<g transform="matrix(0.3661746 0 0 0.3692972 -15.4306 -2.585081)">
	</g>
    <path transform="matrix(0.3661746 0 0 0.3692972 -15.4306 -2.585081)"  d="M97.61 11.46C 97.85 11.26 98.1 11.07 98.35 10.89C 93.6 14.46 90.53 20.15 90.53 26.56L90.53 26.56L90.53 68.02L73.97 81.73C 70.35 84.74001 65.97 86.19 61.6 86.19C 55.99 86.19 50.42 83.77 46.58 79.08C 39.75 70.74001 40.93 58.42 49.22 51.56L49.22 51.56L97.61 11.46z" stroke="none" fill="#FBBC04" fill-rule="nonzero" />
</g>
</svg>