<?xml version="1.0" standalone="no"?>
<!DOCTYPE svg PUBLIC "-//W3C//DTD SVG 1.0//EN" "http://www.w3.org/TR/2001/REC-SVG-20010904/DTD/svg10.dtd">
<svg xmlns="http://www.w3.org/2000/svg" xmlns:xlink="http://www.w3.org/1999/xlink" id="body_1" width="32" height="24">

<g transform="matrix(0.03125 0 0 0.03125 0 0)">
	<g transform="matrix(0.2423478 0 0 0.2423478 180.2381 0)">
	</g>
    <path transform="matrix(0.2423478 0 0 0.2423478 180.2381 0)"  d="M2737.9 1368.4C 2737.9 612.7 2124.1 0 1368.4 0C 612.7 0 0 612.7 0 1368.4C 0 2084.3 652.5 2664.8 1368.4 2664.8L1368.4 2664.8L1368.4 3169C 2199.9 2747.3 2737.9 2068.7 2737.9 1368.4z" stroke="none" fill="#0F9D58" fill-rule="nonzero" />
	<g transform="matrix(0.2423478 0 0 0.2423478 180.2381 0)">
	</g>
    <path transform="matrix(0.2423478 0 0 0.2423478 180.2381 0)"  d="M2052.6 1008.3L1656.5 1404.4L1260.4 1008.3L684.2001 1584.5L1919 2819.3C 2334.6 2491 2616 2086.9 2706.3 1662L2706.3 1662L2052.6 1008.3z" stroke="none" fill="none" />
	<g transform="matrix(0.2423478 0 0 0.2423478 180.2381 0)">
	</g>
    <path transform="matrix(0.2423478 0 0 0.2423478 180.2381 0)"  d="M1476.5 1008.3L1476.5 1584.5L1800.6 1584.5L1800.6 1908.6C 1941.9 1908.6 2052.7 1728.5 2052.7 1548.5L2052.7 1548.5L2052.7 1008.3L1476.5 1008.3z" stroke="none" fill="#EEEEEE" fill-rule="nonzero" />
	<g transform="matrix(0.2423478 0 0 0.2423478 180.2381 0)">
	</g>
    <path transform="matrix(0.2423478 0 0 0.2423478 180.2381 0)"  d="M684.2 1008.3L684.2 1584.5L1008.3 1584.5L1008.3 1908.6C 1149.6 1908.6 1260.4 1728.5 1260.4 1548.5L1260.4 1548.5L1260.4 1008.3L684.2 1008.3z" stroke="none" fill="#EEEEEE" fill-rule="nonzero" />
	<g transform="matrix(0.2423478 0 0 0.2423478 180.2381 0)">
	</g>
    <path transform="matrix(0.2423478 0 0 0.2423478 180.2381 0)"  d="M684.2 1008.3L1260.4 1008.3L1260.4 1026.3L684.2 1026.3L684.2 1008.3zM1476.5 1008.3L2052.7 1008.3L2052.7 1026.3L1476.5 1026.3L1476.5 1008.3z" stroke="none" fill="#FFFFFF" fill-rule="nonzero" fill-opacity="0.4" />
	<g transform="matrix(0.2423478 0 0 0.2423478 180.2381 0)">
	</g>
    <path transform="matrix(0.2423478 0 0 0.2423478 180.2381 0)"  d="M1800.6 1908.6L1800.6 1926.6C 1941.9 1926.6 2052.7 1746.5 2052.7 1566.5L2052.7 1566.5L2052.7 1548.5C 2052.6 1728.5 1941.9 1908.6 1800.6 1908.6zM1800.6 1584.5L1476.5 1584.5L1476.5 1602.5L1800.6 1602.5L1800.6 1584.5zM1008.3 1908.6L1025.4 1925.7C 1158.5 1912 1260.4 1739.2 1260.4 1566.5L1260.4 1566.5L1260.4 1548.5C 1260.4 1728.5 1149.7 1908.6 1008.3 1908.6zM1008.3 1584.5L684.2 1584.5L684.2 1602.5L1008.3 1602.5L1008.3 1584.5z" stroke="none" fill="#263238" fill-rule="nonzero" fill-opacity="0.2" />
	<g transform="matrix(0.2423478 0 0 0.2423478 180.2381 0)">
	</g>
    <path transform="matrix(0.2423478 0 0 0.2423478 180.2381 0)"  d="M1368.4 18C 2124.1 18 2736.8 630.7 2736.8 1386.4L2736.8 1386.4L2737.5 1386.4C 2737.5 1380.5 2737.9 1374.3 2737.9 1368.4L2737.9 1368.4L2736.8 1368.4C 2736.8 612.7 2124.1 0 1368.4 0C 612.7 0 0 612.7 0 1368.4C 0 1371.3 0.2 1374 0.2 1376.9C 5.4 625.5 615.8 18 1368.4 18z" stroke="none" fill="#FFFFFF" fill-rule="nonzero" fill-opacity="0.2" />
	<g transform="matrix(0.2423478 0 0 0.2423478 180.2381 0)">
	</g>
    <path transform="matrix(0.2423478 0 0 0.2423478 180.2381 0)"  d="M1368.4 2664.8L1368.4 2646.8C 655.2 2646.8 5.4 2071 0.2 1358.9C 0.2 1362.1 0 1365.2 0 1368.4C 0 2084.3 652.5 2664.8 1368.4 2664.8zM2736.8 1368.4C 2727.6 2062.2 2192.7 2732.9 1368.4 3150.9L1368.4 3150.9L1368.4 3168.9C 2199.9 2747.3 2736.8 2068.7 2736.8 1368.4z" stroke="none" fill="#263238" fill-rule="nonzero" fill-opacity="0.2" />
</g>
</svg>