<?xml version="1.0" standalone="no"?>
<!DOCTYPE svg PUBLIC "-//W3C//DTD SVG 1.0//EN" "http://www.w3.org/TR/2001/REC-SVG-20010904/DTD/svg10.dtd">
<svg xmlns="http://www.w3.org/2000/svg" xmlns:xlink="http://www.w3.org/1999/xlink" id="body_1" width="32" height="32">

<g transform="matrix(0.0128 0 0 0.0128 0 0)">
	<g transform="matrix(47.35711 0 0 47.35711 -309.3812 -189.4284)">
	</g>
    <path transform="matrix(47.35711 0 0 47.35711 -309.3812 -189.4284)"  d="M37.34 7.82C 35.66 7.29 33.86 7 32 7C 26.57 7 21.71 9.45 18.46 13.31L18.46 13.31L26.81 20.33L37.34 7.82z" stroke="none" fill="#1A73E8" fill-rule="nonzero" />
	<g transform="matrix(47.35711 0 0 47.35711 -309.3812 -189.4284)">
	</g>
    <path transform="matrix(47.35711 0 0 47.35711 -309.3812 -189.4284)"  d="M18.46 13.31C 15.78294 16.48962 14.3165 20.51348 14.32 24.67C 14.32 27.99 14.98 30.69 16.07 33.1L16.07 33.1L26.81 20.33L18.46 13.31z" stroke="none" fill="#EA4335" fill-rule="nonzero" />
	<g transform="matrix(47.35711 0 0 47.35711 -309.3812 -189.4284)">
	</g>
    <path transform="matrix(47.35711 0 0 47.35711 -309.3812 -189.4284)"  d="M32 17.92C 34.63188 17.92242 37.02339 19.45125 38.13038 21.839C 39.23737 24.22676 38.85882 27.03982 37.16 29.05L37.16 29.05L47.68 16.54C 45.52066 12.37973 41.79799 9.246923 37.33 7.829999L37.33 7.829999L26.82 20.34C 28.10204 18.80467 29.99978 17.91808 32 17.92" stroke="none" fill="#4285F4" fill-rule="nonzero" />
	<g transform="matrix(47.35711 0 0 47.35711 -309.3812 -189.4284)">
	</g>
    <path transform="matrix(47.35711 0 0 47.35711 -309.3812 -189.4284)"  d="M32 31.44C 28.27 31.44 25.24 28.41 25.24 24.68C 25.23563 23.09179 25.79559 21.55367 26.82 20.34L26.82 20.34L16.07 33.11C 17.91 37.18 20.96 40.45 24.1 44.57L24.1 44.57L37.16 29.05C 35.87571 30.56744 33.98797 31.4418 32 31.44" stroke="none" fill="#FBBC04" fill-rule="nonzero" />
	<g transform="matrix(47.35711 0 0 47.35711 -309.3812 -189.4284)">
	</g>
    <path transform="matrix(47.35711 0 0 47.35711 -309.3812 -189.4284)"  d="M36.9 48.8C 42.8 39.58 49.67 35.39 49.67 24.67C 49.67 21.73 48.95 18.96 47.68 16.52L47.68 16.52L24.11 44.57C 25.11 45.88 26.12 47.27 27.1 48.81C 30.68 54.35 29.69 57.67 32 57.67C 34.31 57.67 33.32 54.34 36.9 48.8" stroke="none" fill="#34A853" fill-rule="nonzero" />
</g>
</svg>