<?xml version="1.0" standalone="no"?>
<!DOCTYPE svg PUBLIC "-//W3C//DTD SVG 1.0//EN" "http://www.w3.org/TR/2001/REC-SVG-20010904/DTD/svg10.dtd">
<svg xmlns="http://www.w3.org/2000/svg" xmlns:xlink="http://www.w3.org/1999/xlink" id="body_1" width="32" height="32">

<defs>
    <radialGradient cx="18.25271%" cy="1233.959%" r="145.0288%" gradientUnits="objectBoundingBox" id="1">
        <stop offset="0%" stop-color="#FFFFFF" stop-opacity="1"/>
        <stop offset="100%" stop-color="#FFFFFF" stop-opacity="0"/>
    </radialGradient>
<mask id="263">
<path  transform="matrix(1 0 0 1 0 0)"   d="M566.3268 33.56952C 566.3268 153.2533 518.7319 268.1575 434.1028 352.7867C 349.4736 437.4159 234.5693 485.0108 114.8856 485.0108C -4.798156 485.0108 -119.7024 437.4159 -204.3316 352.7867C -288.9608 268.1575 -336.5557 153.2533 -336.5557 33.56952C -336.5557 -86.11423 -288.9608 -201.0185 -204.3316 -285.6476C -119.7024 -370.2768 -4.798156 -417.8717 114.8856 -417.8717C 234.5693 -417.8717 349.4736 -370.2768 434.1028 -285.6476C 518.7319 -201.0185 566.3268 -86.11423 566.3268 33.56952z" fill="white"/>
</mask>
</defs>

<g transform="matrix(0.0128 0 0 0.0128 0 0)">
	<g transform="matrix(4.906116 0 0 4.906116 -4.906116 -1.633775)">
	</g>
    <path transform="matrix(4.906116 0 0 4.906116 -4.906116 -1.633775)"  d="M405.573 329.866C 405.526 336.966 399.757 342.695 392.658 342.695L392.658 342.695L119.4 342.695C 112.278 342.727 106.474 336.988 106.427 329.866L106.427 329.866L106.427 61.728C 106.474 54.628 112.243 48.898 119.342 48.898L119.342 48.898L392.6 48.898C 399.722 48.867 405.526 54.606 405.573 61.728L405.573 61.728L405.573 329.866z" stroke="none" fill="#0C9D58" fill-rule="nonzero" />
	<g transform="matrix(4.906116 0 0 4.906116 -4.906116 -1.633775)">
	</g>
    <path transform="matrix(4.906116 0 0 4.906116 -4.906116 -1.633775)"  d="M405.573 117.818L303.144 104.644L405.573 132.142L405.573 117.818zM260.947 62.878L105.823 132.142L277.257 69.752L277.257 69.58C 274.585 63.245 267.302 60.252 260.947 62.878z" stroke="none" fill="#004D40" fill-rule="nonzero" fill-opacity="0.2" />
	<g transform="matrix(4.906116 0 0 4.906116 -4.906116 -1.633775)">
	</g>
    <path transform="matrix(4.906116 0 0 4.906116 -4.906116 -1.633775)"  d="M392.658 48.899L119.4 48.899C 112.278 48.867 106.474 54.606 106.427 61.728L106.427 61.728L106.427 64.604C 106.474 57.505 112.243 51.77499 119.342 51.77499L119.342 51.77499L392.6 51.77499C 399.722 51.74299 405.526 57.48199 405.573 64.604L405.573 64.604L405.573 61.728C 405.526 54.628 399.757 48.89799 392.658 48.89799L392.658 48.89799L392.658 48.899z" stroke="none" fill="#FFFFFF" fill-rule="nonzero" fill-opacity="0.2" />
	<g transform="matrix(4.906116 0 0 4.906116 -4.906116 -1.633775)">
	</g>
    <path transform="matrix(4.906116 0 0 4.906116 -4.906116 -1.633775)"  d="M172.757 321.64C 170.731 328.214 174.393 335.191 180.955 337.258L180.955 337.258L434.078 405.343C 440.794 406.827 447.448 402.613 448.978 395.908L448.978 395.908L508.606 173.332C 510.639 166.782 507.022 159.817 500.494 157.713L500.494 157.713L247.371 89.63C 240.655 88.145 234.001 92.35899 232.471 99.064L232.471 99.064L172.757 321.64z" stroke="none" fill="#EA4335" fill-rule="nonzero" />
	<g transform="matrix(4.906116 0 0 4.906116 -4.906116 -1.633775)">
	</g>
    <path transform="matrix(4.906116 0 0 4.906116 -4.906116 -1.633775)"  d="M451.596 252.778L464.913 333.663L451.596 383.367L451.596 252.778zM304.324 107.951L316.261 111.173L323.681 161.079z" stroke="none" fill="#3E2723" fill-rule="nonzero" fill-opacity="0.2" />
	<g transform="matrix(4.906116 0 0 4.906116 -4.906116 -1.633775)">
	</g>
    <path transform="matrix(4.906116 0 0 4.906116 -4.906116 -1.633775)"  d="M500.494 157.713L247.371 89.63C 240.655 88.145 234.001 92.35899 232.471 99.064L232.471 99.064L172.757 321.64C 172.757 322.013 172.757 322.387 172.556 322.761L172.556 322.761L231.752 101.853C 233.282 95.14801 239.936 90.93401 246.652 92.41901L246.652 92.41901L499.775 160.503C 505.8459 162.4342 509.4648 168.6525 508.145 174.885L508.145 174.885L508.605 173.188C 510.547 166.684 506.948 159.818 500.495 157.713L500.495 157.713L500.494 157.713z" stroke="none" fill="#FFFFFF" fill-rule="nonzero" fill-opacity="0.2" />
	<g transform="matrix(4.906116 0 0 4.906116 -4.906116 -1.633775)">
	</g>
    <path transform="matrix(4.906116 0 0 4.906116 -4.906116 -1.633775)"  d="M372.12 294.227C 374.718 300.597 371.686 307.87 365.332 310.507L365.332 310.507L98.2 407.73C 91.642 409.803 84.64 406.193 82.52399 399.648L82.52399 399.648L3.711 183.083C 1.135 176.713 4.179 169.458 10.528 166.831L10.528 166.831L277.659 69.61C 284.227 67.497 291.266 71.1 293.393 77.664L293.393 77.664L372.12 294.228L372.12 294.227z" stroke="none" fill="#FFC107" fill-rule="nonzero" />
	<g transform="matrix(4.906116 0 0 4.906116 -4.906116 -1.633775)">
	</g>
    <path transform="matrix(4.906116 0 0 4.906116 -4.906116 -1.633775)"  d="M4.717 185.816C 2.139 179.454 5.167 172.202 11.506 169.564L11.506 169.564L278.637 72.342C 285.104 70.308 292.012 73.80599 294.199 80.22199L294.199 80.22199L293.393 77.66199C 291.278 71.118 284.276 67.507 277.717 69.57999L277.717 69.57999L10.52704 166.831C 4.174038 169.469 1.142038 176.741 3.739038 183.111L3.739038 183.111L82.55304 399.648L82.55304 399.849L4.717 185.816z" stroke="none" fill="#FFFFFF" fill-rule="nonzero" fill-opacity="0.2" />
	<g transform="matrix(4.906116 0 0 4.906116 -4.906116 -1.633775)">
	</g>
    <path transform="matrix(4.906116 0 0 4.906116 -4.906116 -1.633775)"  d="M60.404 174.023C 60.404 166.8742 66.19923 161.079 73.348 161.079L73.348 161.079L438.651 161.079C 445.7998 161.079 451.595 166.8742 451.595 174.023L451.595 174.023L451.595 450.157C 451.595 457.3058 445.7998 463.101 438.651 463.101L438.651 463.101L73.348 463.101C 66.19923 463.101 60.404 457.3058 60.404 450.157L60.404 450.157L60.404 174.023z" stroke="none" fill="#4285F4" fill-rule="nonzero" />
	<g transform="matrix(4.906116 0 0 4.906116 -4.906116 -1.633775)">
	</g>
    <path transform="matrix(4.906116 0 0 4.906116 -4.906116 -1.633775)"  d="M272.54 241.618L381.843 241.618C 385.0203 241.618 387.596 244.1937 387.596 247.371L387.596 247.371L387.596 264.629C 387.596 267.8063 385.0203 270.382 381.843 270.382L381.843 270.382L272.539 270.382L272.539 241.618L272.54 241.618zM272.54 350.921L381.843 350.921C 385.0203 350.921 387.596 353.4967 387.596 356.674L387.596 356.674L387.596 373.933C 387.5955 377.1099 385.0199 379.685 381.843 379.685L381.843 379.685L272.539 379.685L272.539 350.921zM272.54 296.27L399.1 296.27C 402.2769 296.27 404.8524 298.8451 404.853 302.022L404.853 302.022L404.853 319.281C 404.853 322.4583 402.2773 325.034 399.1 325.034L399.1 325.034L272.54 325.034z" stroke="none" fill="#FFFFFF" fill-rule="nonzero" />
	<g transform="matrix(4.906116 0 0 4.906116 -4.906116 -1.633775)">
	</g>
    <path transform="matrix(4.906116 0 0 4.906116 -4.906116 -1.633775)"  d="M438.652 460.225L73.348 460.225C 66.206 460.209 60.42 454.423 60.404 447.281L60.404 447.281L60.404 450.157C 60.42 457.299 66.206 463.085 73.348 463.101L73.348 463.101L438.652 463.101C 445.794 463.085 451.58 457.299 451.596 450.157L451.596 450.157L451.596 447.281C 451.58 454.423 445.794 460.209 438.652 460.225z" stroke="none" fill="#1A237E" fill-rule="nonzero" fill-opacity="0.2" />
	<g transform="matrix(4.906116 0 0 4.906116 -4.906116 -1.633775)">
	</g>
    <path transform="matrix(4.906116 0 0 4.906116 -4.906116 -1.633775)"  d="M73.348 163.955L438.652 163.955C 445.794 163.971 451.58 169.757 451.596 176.899L451.596 176.899L451.596 174.022C 451.58 166.88 445.794 161.094 438.652 161.079L438.652 161.079L73.348 161.079C 66.206 161.094 60.42 166.88 60.404 174.022L60.404 174.022L60.404 176.899C 60.42 169.757 66.206 163.971 73.348 163.955z" stroke="none" fill="#FFFFFF" fill-rule="nonzero" fill-opacity="0.2" />
	<g transform="matrix(4.906116 0 0 4.906116 -4.906116 -1.633775)">
	</g>
    <path transform="matrix(4.906116 0 0 4.906116 -4.906116 -1.633775)"  d="M174.742 299.146L174.742 325.034L211.962 325.034C 208.884 340.854 194.992 352.302 174.742 352.302C 151.707 352.302 133.034 333.629 133.034 310.594C 133.034 287.56 151.707 268.886 174.742 268.886C 184.6394 268.6984 194.2073 272.4431 201.348 279.299L201.348 279.299L221.052 259.596C 208.5368 247.8151 191.9279 241.3674 174.742 241.618C 150.0168 241.5249 127.1298 254.6622 114.7402 276.0594C 102.3506 297.4568 102.3506 323.8462 114.7402 345.2435C 127.1298 366.6408 150.0168 379.7781 174.742 379.685C 214.609 379.685 240.899 351.669 240.899 312.234C 240.8847 307.8492 240.5192 303.4724 239.806 299.146L239.806 299.146L174.742 299.146z" stroke="none" fill="#FFFFFF" fill-rule="nonzero" />
	<g transform="matrix(4.906116 0 0 4.906116 -4.906116 -1.633775)">
	</g>
    <path transform="matrix(4.906116 0 0 4.906116 -4.906116 -1.633775)"  d="M175.46 325.034L175.46 327.91L211.991 327.91C 212.259 326.97 212.49 326.012 212.681 325.034L212.681 325.034L175.461 325.034L175.46 325.034z" stroke="none" fill="#1A237E" fill-rule="nonzero" fill-opacity="0.2" />
	<g transform="matrix(4.906116 0 0 4.906116 -4.906116 -1.633775)">
	</g>
    <path transform="matrix(4.906116 0 0 4.906116 -4.906116 -1.633775)"  d="M175.46 379.685C 137.89 379.694 107.21 349.653 106.427 312.09L106.427 312.09L106.427 313.528C 106.427 351.654 137.334 382.562 175.461 382.562C 215.328 382.562 241.618 354.546 241.618 315.11L241.618 315.11L241.618 314.19C 240.668 352.59 214.666 379.685 175.461 379.685L175.461 379.685L175.46 379.685zM201.952 279.299C 194.8304 272.4926 185.3106 268.7714 175.461 268.944C 152.704 269.306 134.464 287.892 134.529 310.652L134.529 310.652L134.529 312.09C 135.203 289.912 153.189 272.179 175.374 271.82C 185.224 271.6472 194.7442 275.3683 201.866 282.175L201.866 282.175L223.008 261.034C 222.518 260.574 221.972 260.171 221.454 259.711L221.454 259.711L201.866 279.299zM387.596 267.506L387.596 264.629C 387.596 267.8063 385.0203 270.382 381.843 270.382L381.843 270.382L272.539 270.382L272.539 273.258L381.843 273.258C 385.0199 273.258 387.5955 270.6829 387.596 267.506zM381.843 379.685L272.539 379.685L272.539 382.562L381.843 382.562C 385.0203 382.562 387.596 379.9863 387.596 376.809L387.596 376.809L387.596 373.933C 387.5955 377.1099 385.0199 379.685 381.843 379.685zM399.101 325.034L272.54 325.034L272.54 327.91L399.102 327.91C 402.2793 327.91 404.855 325.3343 404.855 322.157L404.855 322.157L404.855 319.281C 404.855 322.4583 402.2793 325.034 399.102 325.034z" stroke="none" fill="#1A237E" fill-rule="nonzero" fill-opacity="0.2" />
	<g transform="matrix(4.906116 0 0 4.906116 -4.906116 -1.633775)">
	</g>
    <path transform="matrix(4.906116 0 0 4.906116 -4.906116 -1.633775)"  d="M500.494 157.713L405.573 132.315L405.573 61.728C 405.526 54.628 399.757 48.898 392.658 48.898L392.658 48.898L119.4 48.898C 112.278 48.867 106.474 54.606 106.427 61.728L106.427 61.728L106.427 131.912L10.527 166.832C 4.174 169.469 1.142 176.742 3.739 183.112L3.739 183.112L60.404 338.84L60.404 450.157C 60.42 457.299 66.206 463.085 73.348 463.101L73.348 463.101L438.652 463.101C 445.794 463.085 451.58 457.299 451.596 450.157L451.596 450.157L451.596 386.244L508.635 173.39C 510.703 166.814 507.063 159.804 500.495 157.713L500.495 157.713L500.494 157.713z" stroke="none" mask="url(#263)" fill="url(#1)"  />
</g>
</svg>