<?xml version="1.0" standalone="no"?>
<!DOCTYPE svg PUBLIC "-//W3C//DTD SVG 1.0//EN" "http://www.w3.org/TR/2001/REC-SVG-20010904/DTD/svg10.dtd">
<svg xmlns="http://www.w3.org/2000/svg" xmlns:xlink="http://www.w3.org/1999/xlink" id="body_1" width="32" height="32">

<g transform="matrix(0.0128 0 0 0.0128 0 0)">
	<g transform="matrix(14.74057 0 0 14.74057 -14.74057 -147.4057)">
	</g>
    <path transform="matrix(14.74057 0 0 14.74057 -14.74057 -147.4057)"  d="M43.6 49.4C 67 49.4 86 68.4 86 91.8L86 91.8L86 95.7L5.099998 95.7C 2.999999 95.7 1.299999 94.00001 1.199998 91.8C 1.199998 68.4 20.2 49.4 43.6 49.4z" stroke="none" fill="#F6BC04" fill-rule="nonzero" />
	<g transform="matrix(14.74057 0 0 14.74057 -14.74057 -147.4057)">
	</g>
    <path transform="matrix(14.74057 0 0 14.74057 -14.74057 -147.4057)"  d="M132.2 53.2C 132.2 76.6 113.2 95.60001 89.8 95.60001L89.8 95.60001L85.99999 95.60001L85.99999 14.7C 85.99999 12.6 87.69999 10.8 89.8 10.8C 113.3 10.8 132.2 29.8 132.2 53.2z" stroke="none" fill="#EA4335" fill-rule="nonzero" />
	<g transform="matrix(14.74057 0 0 14.74057 -14.74057 -147.4057)">
	</g>
    <path transform="matrix(14.74057 0 0 14.74057 -14.74057 -147.4057)"  d="M128.4 141.9C 105 141.9 85.99999 122.9 85.99999 99.49999L85.99999 99.49999L85.99999 95.59999L166.9 95.59999C 169 95.59999 170.8 97.29999 170.8 99.39999C 170.8 122.9 151.8 141.9 128.4 141.9z" stroke="none" fill="#4285F4" fill-rule="nonzero" />
	<g transform="matrix(14.74057 0 0 14.74057 -14.74057 -147.4057)">
	</g>
    <path transform="matrix(14.74057 0 0 14.74057 -14.74057 -147.4057)"  d="M39.8 138C 39.8 114.6 58.8 95.6 82.2 95.6L82.2 95.6L86 95.6L86 176.5C 86 178.6 84.3 180.3 82.1 180.4C 58.7 180.4 39.8 161.4 39.8 138z" stroke="none" fill="#34A853" fill-rule="nonzero" />
</g>
</svg>