<?xml version="1.0" standalone="no"?>
<!DOCTYPE svg PUBLIC "-//W3C//DTD SVG 1.0//EN" "http://www.w3.org/TR/2001/REC-SVG-20010904/DTD/svg10.dtd">
<svg xmlns="http://www.w3.org/2000/svg" xmlns:xlink="http://www.w3.org/1999/xlink" id="body_1" width="32" height="32">

<g transform="matrix(0.0128 0 0 0.0128 0 0)">
	<g transform="matrix(4.882813 0 0 4.882813 0 0)">
	</g>
    <path transform="matrix(4.882813 0 0 4.882813 0 0)"  d="M64 238.545L64 273.455C 64 291.128 49.673 305.455 32 305.455C 14.327 305.455 0 291.128 0 273.455L0 273.455L0 238.545C 0 220.872 14.327 206.545 32 206.545C 49.673 206.545 64 220.872 64 238.545z" stroke="none" fill="#0066D9" fill-rule="nonzero" />
	<g transform="matrix(4.882813 0 0 4.882813 0 0)">
	</g>
    <path transform="matrix(4.882813 0 0 4.882813 0 0)"  d="M448.013 239.455C 448.0045 239.1517 448.0001 238.8484 448 238.545C 448 220.872 462.327 206.545 480 206.545C 497.673 206.545 512 220.872 512 238.545C 512 238.849 511.996 239.153 511.987 239.455L511.987 239.455L512 239.455L512 274.364L511.987 274.364C 511.507 291.616 497.369 305.454 480 305.454C 462.631 305.454 448.494 291.616 448.013 274.364L448.013 274.364L448 274.364L448 239.454L448.013 239.454L448.013 239.455z" stroke="none" fill="#4285F4" fill-rule="nonzero" />
	<g transform="matrix(4.882813 0 0 4.882813 0 0)">
	</g>
    <path transform="matrix(4.882813 0 0 4.882813 0 0)"  d="M174.545 343.273L174.545 378.182C 174.545 395.855 160.219 410.182 142.545 410.182C 124.871 410.182 110.545 395.855 110.545 378.182L110.545 378.182L110.545 343.272C 110.545 325.6 124.872 311.272 142.545 311.272C 160.218 311.272 174.545 325.6 174.545 343.272L174.545 343.272L174.545 343.273zM174.545 133.818L174.545 248L174.537 248C 174.151 265.337 159.975 279.273 142.545 279.273C 125.115 279.273 110.94 265.337 110.554 248L110.554 248L110.545 248L110.545 133.818C 110.545 116.145 124.872 101.818 142.545 101.818C 160.218 101.818 174.545 116.145 174.545 133.818z" stroke="none" fill="#EA4335" fill-rule="nonzero" />
	<g transform="matrix(4.882813 0 0 4.882813 0 0)">
	</g>
    <path transform="matrix(4.882813 0 0 4.882813 0 0)"  d="M337.455 168.727C 337.455 186.4 351.781 200.727 369.455 200.727C 387.129 200.727 401.455 186.4 401.455 168.727L401.455 168.727L401.455 133.818C 401.455 116.145 387.128 101.818 369.455 101.818C 351.782 101.818 337.455 116.145 337.455 133.818L337.455 133.818L337.455 168.727z" stroke="none" fill="#34A853" fill-rule="nonzero" />
	<g transform="matrix(4.882813 0 0 4.882813 0 0)">
	</g>
    <path transform="matrix(4.882813 0 0 4.882813 0 0)"  d="M224 66.91C 224 84.582 238.327 98.91 256 98.91C 273.673 98.91 288 84.582 288 66.91L288 66.91L288 32C 288 14.327 273.673 0 256 0C 238.327 0 224 14.327 224 32L224 32L224 66.91zM224 445.09C 224 427.418 238.327 413.09 256 413.09C 273.673 413.09 288 427.418 288 445.09L288 445.09L288 480C 288 497.673 273.673 512 256 512C 238.327 512 224 497.673 224 480z" stroke="none" fill="#FAB908" fill-rule="nonzero" />
	<g transform="matrix(4.882813 0 0 4.882813 0 0)">
	</g>
    <path transform="matrix(4.882813 0 0 4.882813 0 0)"  d="M337.455 264.727C 337.455 247.054 351.781 232.727 369.455 232.727C 387.129 232.727 401.455 247.054 401.455 264.727L401.455 264.727L401.455 378.182C 401.455 395.855 387.128 410.182 369.455 410.182C 351.782 410.182 337.455 395.855 337.455 378.182L337.455 378.182L337.455 264.727z" stroke="none" fill="#34A853" fill-rule="nonzero" />
	<g transform="matrix(4.882813 0 0 4.882813 0 0)">
	</g>
    <path transform="matrix(4.882813 0 0 4.882813 0 0)"  d="M288 162.91L288 349.09C 288 366.764 273.673 381.09 256 381.09C 238.327 381.09 224 366.764 224 349.09L224 349.09L224 162.91C 224 145.236 238.327 130.91 256 130.91C 273.673 130.91 288 145.236 288 162.91z" stroke="none" fill="#FAB908" fill-rule="nonzero" />
</g>
</svg>