<?xml version="1.0" standalone="no"?>
<!DOCTYPE svg PUBLIC "-//W3C//DTD SVG 1.0//EN" "http://www.w3.org/TR/2001/REC-SVG-20010904/DTD/svg10.dtd">
<svg xmlns="http://www.w3.org/2000/svg" xmlns:xlink="http://www.w3.org/1999/xlink" id="body_1" width="32" height="32">

<g transform="matrix(0.0128 0 0 0.0128 0 0)">
	<g transform="matrix(4.842813 0 0 4.842813 0 19.37288)">
	</g>
    <path transform="matrix(4.842813 0 0 4.842813 0 19.37288)"  d="M411.503 136.66C 431.685 136.66 448.048 120.298 448.048 100.116C 448.048 79.93401 431.685 63.57201 411.503 63.57201L411.503 63.57201L411.503 136.66zM152.615 125.505L264.723 13.397C 273.275 4.845003 285.151 -0.3799973 298.216 -0.3799973L298.216 -0.3799973L464.492 -0.3799973C 477.1052 -0.4240303 489.2145 4.56699 498.1335 13.48581C 507.0525 22.40463 512.0438 34.51383 512 47.127L512 47.127L512 213.403C 512 226.468 506.774 238.345 497.985 246.896L497.985 246.896L386.048 358.94z" stroke="none" fill="#4285F4" fill-rule="nonzero" />
	<g transform="matrix(4.842813 0 0 4.842813 0 19.37288)">
	</g>
    <path transform="matrix(4.842813 0 0 4.842813 0 19.37288)"  d="M386.048 358.94L247.895 497.223C 239.105 505.774 227.229 511.238 214.165 511.238C 201.101 511.238 189.223 505.774 180.672 497.223L180.672 497.223L14.39502 330.948C 5.60602 322.396 0.3810196 310.52 0.3810196 297.455C 0.3810196 284.153 5.844019 272.276 14.39502 263.725L14.39502 263.725L152.615 125.505L386.048 358.94z" stroke="none" fill="#34A853" fill-rule="nonzero" />
	<g transform="matrix(4.842813 0 0 4.842813 0 19.37288)">
	</g>
    <path transform="matrix(4.842813 0 0 4.842813 0 19.37288)"  d="M95.085 411.637L14.395 330.947C 5.605997 322.398 0.3809967 310.52 0.3809967 297.456C 0.3809967 284.154 5.843997 272.277 14.395 263.726L14.395 263.726L152.615 125.506L266.915 239.808L95.085 411.637z" stroke="none" fill="#FBBC05" fill-rule="nonzero" />
	<g transform="matrix(4.842813 0 0 4.842813 0 19.37288)">
	</g>
    <path transform="matrix(4.842813 0 0 4.842813 0 19.37288)"  d="M495.595 11.127C 486.9538 3.66687 475.9079 -0.419693 464.492 -0.3800001L464.492 -0.3800001L298.216 -0.3800001C 285.151 -0.3800001 273.275 4.845 264.723 13.397L264.723 13.397L152.615 125.505L266.915 239.807L383.33 123.392C 377.9081 116.8485 374.947 108.6139 374.96 100.116C 374.96 79.93401 391.321 63.57201 411.503 63.57201C 420.0012 63.55875 428.2362 66.5199 434.78 71.94201L434.78 71.94201L495.595 11.127z" stroke="none" fill="#EA4335" fill-rule="nonzero" />
	<g transform="matrix(4.842813 0 0 4.842813 0 19.37288)">
	</g>
    <path transform="matrix(4.842813 0 0 4.842813 0 19.37288)"  d="M341.079 252.764C 341.079 232.266 333.8318 214.7698 319.3375 200.2755C 304.8432 185.7812 287.347 178.534 266.849 178.534C 246.351 178.534 228.8548 185.7812 214.3605 200.2755C 199.8661 214.7698 192.619 232.266 192.619 252.764C 192.619 273.2621 199.8661 290.7582 214.3605 305.2525C 228.8548 319.7469 246.351 326.994 266.849 326.994C 287.347 326.994 304.8432 319.7469 319.3375 305.2525C 333.8318 290.7582 341.079 273.2621 341.079 252.764" stroke="none" fill="#4285F4" fill-rule="nonzero" />
	<g transform="matrix(4.842813 0 0 4.842813 0 19.37288)">
	</g>
    <path transform="matrix(4.842813 0 0 4.842813 0 19.37288)"  d="M367.983 230.928L269.257 230.928L269.257 273.286L326.085 273.286C 320.787 300.196 298.635 315.644 269.257 315.644C 234.582 315.644 206.65 286.741 206.65 250.861C 206.65 214.981 234.582 186.078 269.257 186.078C 284.187 186.078 297.671 191.56 308.266 200.53L308.266 200.53L339.088 168.636C 320.306 151.693 296.226 141.228 269.257 141.228C 210.503 141.228 163.307 190.065 163.307 250.861C 163.307 311.657 210.503 360.494 269.257 360.494C 322.232 360.494 370.391 320.627 370.391 250.861C 370.391 244.383 369.428 237.406 367.983 230.928z" stroke="none" fill="#FFFFFF" fill-rule="nonzero" />
</g>
</svg>