<?xml version="1.0" standalone="no"?>
<!DOCTYPE svg PUBLIC "-//W3C//DTD SVG 1.0//EN" "http://www.w3.org/TR/2001/REC-SVG-20010904/DTD/svg10.dtd">
<svg xmlns="http://www.w3.org/2000/svg" xmlns:xlink="http://www.w3.org/1999/xlink" id="body_1" width="32" height="32">

<g transform="matrix(0.0128 0 0 0.0128 0 0)">
	<g transform="matrix(4.882813 0 0 4.882813 2.910123 0)">
	</g>
    <path transform="matrix(4.882813 0 0 4.882813 2.910123 0)"  d="M175.034 21.925C 175.034 9.816 184.85 0 196.96 0L196.96 0L315.37 0C 327.48 0 337.296 9.815 337.296 21.925L337.296 21.925L337.296 140.335C 337.296 152.445 327.481 162.261 315.37 162.261L315.37 162.261L196.96 162.261C 184.85 162.261 175.034 152.446 175.034 140.336L175.034 140.336L175.034 21.925zM214.504 37.276L214.504 119.503L296.73 119.503L296.73 37.276zM173.39 512C 150.683 512 132.276 493.593 132.276 470.887C 132.276 448.18 150.683 429.773 173.39 429.773C 196.096 429.773 214.503 448.18 214.503 470.887C 214.503 493.593 196.096 512 173.39 512zM337.844 512C 315.137 512 296.73 493.593 296.73 470.887C 296.73 448.18 315.137 429.773 337.844 429.773C 360.551 429.773 378.957 448.18 378.957 470.887C 378.957 493.593 360.55 512 337.844 512z" stroke="none" fill="#1967D2" fill-rule="nonzero" />
	<g transform="matrix(4.882813 0 0 4.882813 2.910123 0)">
	</g>
    <path transform="matrix(4.882813 0 0 4.882813 2.910123 0)"  d="M95 134.852C 95 113.0539 112.6709 95.383 134.469 95.383L134.469 95.383L377.861 95.383C 399.6591 95.383 417.33 113.0539 417.33 134.852L417.33 134.852L417.33 429.773C 417.33 451.5711 399.6591 469.242 377.861 469.242L377.861 469.242L134.469 469.242C 112.6709 469.242 95 451.5711 95 429.773L95 429.773L95 134.852z" stroke="none" fill="#4285F4" fill-rule="nonzero" />
	<g transform="matrix(4.882813 0 0 4.882813 2.910123 0)">
	</g>
    <path transform="matrix(4.882813 0 0 4.882813 2.910123 0)"  d="M95 134.862L95 429.763C 95 433.877 95.629 437.843 96.795 441.572L96.795 441.572L256.311 282.056L96.991 122.446C 95.66771 126.4516 94.9955 130.6435 95 134.862z" stroke="none" fill="#FBBC04" fill-rule="nonzero" />
	<g transform="matrix(4.882813 0 0 4.882813 2.910123 0)">
	</g>
    <path transform="matrix(4.882813 0 0 4.882813 2.910123 0)"  d="M255.904 282.86L256.708 282.056L257.513 282.861L255.904 282.86zM97.389 122.447C 102.593 106.727 117.406 95.384 134.861 95.384L134.861 95.384L378.264 95.384C 395.804 95.384 410.672 106.83 415.808 122.666L415.808 122.666L256.708 281.766z" stroke="none" fill="#EA4335" fill-rule="nonzero" />
	<g transform="matrix(4.882813 0 0 4.882813 2.910123 0)">
	</g>
    <path transform="matrix(4.882813 0 0 4.882813 2.910123 0)"  d="M255.707 281.764L256.512 282.569L257.316 281.764L255.707 281.764zM97.193 442.18C 102.396 457.9 117.21 469.242 134.664 469.242L134.664 469.242L378.067 469.242C 395.607 469.242 410.475 457.797 415.611 441.961L415.611 441.961L256.511 282.861z" stroke="none" fill="#34A853" fill-rule="nonzero" />
	<g transform="matrix(4.882813 0 0 4.882813 2.910123 0)">
	</g>
    <path transform="matrix(4.882813 0 0 4.882813 2.910123 0)"  d="M335.103 281.764C 335.103 259.9659 327.3962 241.36 311.9826 225.9464C 296.569 210.5328 277.9631 202.826 256.165 202.826C 234.3669 202.826 215.761 210.5328 200.3474 225.9464C 184.9338 241.36 177.227 259.9659 177.227 281.764C 177.227 303.5621 184.9338 322.168 200.3474 337.5816C 215.761 352.9952 234.3669 360.702 256.165 360.702C 277.9631 360.702 296.569 352.9952 311.9826 337.5816C 327.3962 322.168 335.103 303.5621 335.103 281.764" stroke="none" fill="#4285F4" fill-rule="nonzero" />
	<g transform="matrix(4.882813 0 0 4.882813 2.910123 0)">
	</g>
    <path transform="matrix(4.882813 0 0 4.882813 2.910123 0)"  d="M350.714 265.627C 351.9421 272.1941 352.5574 278.8611 352.552 285.542C 352.552 339.718 316.219 378.244 261.356 378.244C 208.869 378.244 166.356 335.804 166.356 283.409C 166.356 231.013 208.869 188.574 261.356 188.574C 287.008 188.574 308.438 197.997 324.888 213.29L324.888 213.29L298.105 240.023L298.105 239.962C 288.132 230.477 275.4861 225.618 261.355 225.618C 230.007 225.618 204.535 252.053 204.535 283.351C 204.535 314.6411 230.007 341.1411 261.355 341.1411C 289.797 341.1411 309.151 324.899 313.135 302.614L313.135 302.614L261.355 302.614L261.355 265.627L350.714 265.627z" stroke="none" fill="#FFFFFF" fill-rule="nonzero" />
</g>
</svg>