<?xml version="1.0" standalone="no"?>
<!DOCTYPE svg PUBLIC "-//W3C//DTD SVG 1.0//EN" "http://www.w3.org/TR/2001/REC-SVG-20010904/DTD/svg10.dtd">
<svg xmlns="http://www.w3.org/2000/svg" xmlns:xlink="http://www.w3.org/1999/xlink" id="body_1" width="32" height="32">

<g transform="matrix(0.01282051 0 0 0.0128 0 0)">
	<g transform="matrix(0.9990131 0 0 0.9990131 0.2328022 0)">
	</g>
    <path transform="matrix(0.9990131 0 0 0.9990131 0.2328022 0)"  d="M0 1864.11L0 1864.22C 1.5 1919.72 2 1975.54 11.32 2030.69C 21.24 2089.04 35.42 2145.94 62.47 2198.9C 99.04333 2270.58 149.1133 2331.133 212.68 2380.56C 258.2 2416.06 307.93 2444.25 362.98 2462.03C 443.24 2487.92 526.05 2497.84 610.07 2498.33C 662.49 2498.66 714.88 2499.97 767.32 2499.75C 1148.14 2498.15 1528.97 2502.5 1909.81 2497.4C 1960.34 2496.72 2010.05 2490.55 2059.65 2481.48C 2154.71 2464.08 2238.72 2423.48 2310.6 2359.39C 2394.37 2284.68 2450.89 2193.23 2476.41 2082.87C 2493.1 2010.73 2497.28 1937.55 2497.99 1864.1L2497.99 1864.1L2497.99 1849.45C 2497.99 1843.77 2495.83 601.5396 2495.63 585.1196C 2495.08 540.0197 2491.75 495.2496 2483.3 450.8696C 2473.01 396.7896 2458.48 344.0896 2432.59 295.1696C 2405.24 243.4696 2370.99 196.9996 2328.59 156.3796C 2263.7 94.14963 2188.81 50.14962 2101.59 26.86963C 2022.85 5.869629 1942.52 1.189629 1861.59 1.269629C 1861.33 0.9052044 1861.174 0.4763244 1861.14 0.02962852L1861.14 0.02962852L636.4001 0.02962852C 636.4001 0.4496285 636.4001 0.8596285 636.3301 1.269629C 590.4001 2.109628 544.4102 1.759629 498.7202 7.429628C 448.6702 13.64963 399.0901 23.01963 351.7202 40.51963C 277.1002 68.11963 212.2601 111.1096 156.8802 168.5196C 94.13016 233.5196 49.88016 308.7396 26.44016 396.3096C 5.490154 474.4396 0.9301548 554.1196 0.8201542 634.3696" stroke="none" fill="#FFFFFF" fill-rule="nonzero" />
	<g transform="matrix(0.9990131 0 0 0.9990131 0.2328022 0)">
	</g>
    <path transform="matrix(0.9990131 0 0 0.9990131 0.2328022 0)"  d="M0 0.79L2498 0.79L2498 2498.79L0 2498.79L0 0.79z" stroke="none" fill="none" />
	<g transform="matrix(0.9990131 0 0 0.9990131 0.2328022 0)">
	</g>
    <path transform="matrix(0.9990131 0 0 0.9990131 0.2328022 0)"  d="M1293.24 1938.65L883.7 1931.16C 751.1 1928.55 618.1699 1933.76 488.17 1906.72C 290.41 1866.32 276.4 1668.23 261.74 1502.07C 241.54 1268.47 249.36 1030.63 287.4799 798.98C 308.9999 669.0001 393.6899 591.4401 524.6599 583.0001C 966.7799 552.3701 1411.84 556.0001 1852.98 570.29C 1899.57 571.6 1946.48 578.76 1992.42 586.91C 2219.19 626.66 2224.72 851.14 2239.42 1040.11C 2254.08 1231.03 2247.89 1422.93 2219.87 1612.55C 2197.39 1769.55 2154.38 1901.21 1972.87 1913.92C 1745.45 1930.54 1523.25 1943.92 1295.19 1939.66C 1295.2 1938.65 1293.89 1938.65 1293.24 1938.65zM1052.47 1541.17C 1223.85 1442.77 1391.96 1346.01 1562.36 1248.27C 1390.66 1149.87 1222.87 1053.11 1052.47 955.37z" stroke="none" fill="#FF0000" fill-rule="nonzero" />
</g>
</svg>