<svg width="1280" height="1280" xmlns="http://www.w3.org/2000/svg" xmlns:xlink="http://www.w3.org/1999/xlink" preserveAspectRatio="xMidYMid meet" version="1.1">
 <defs>
  <path id="agAOZUYtJ" d="m160,80c0,44.15 -35.85,80 -80,80c-44.15,0 -80,-35.85 -80,-80c0,-44.15 35.85,-80 80,-80c44.15,0 80,35.85 80,80z"/>
  <path id="b134YKcBfu" d="m400,80c0,44.15 -35.85,80 -80,80c-44.15,0 -80,-35.85 -80,-80c0,-44.15 35.85,-80 80,-80c44.15,0 80,35.85 80,80z"/>
  <path id="cbZKf2NZX" d="m160,320c0,44.15 -35.85,80 -80,80c-44.15,0 -80,-35.85 -80,-80c0,-44.15 35.85,-80 80,-80c44.15,0 80,35.85 80,80z"/>
  <path id="d6u3N1n5b5" d="m160,560c0,44.15 -35.85,80 -80,80c-44.15,0 -80,-35.85 -80,-80c0,-44.15 35.85,-80 80,-80c44.15,0 80,35.85 80,80z"/>
  <path id="ecv8sNDf8" d="m400,320c0,44.15 -35.85,80 -80,80c-44.15,0 -80,-35.85 -80,-80c0,-44.15 35.85,-80 80,-80c44.15,0 80,35.85 80,80z"/>
  <path id="f19LOmb40c" d="m400,560c0,44.15 -35.85,80 -80,80c-44.15,0 -80,-35.85 -80,-80c0,-44.15 35.85,-80 80,-80c44.15,0 80,35.85 80,80z"/>
  <path id="b3Ahqquq0h" d="m640,80c0,44.15 -35.85,80 -80,80c-44.15,0 -80,-35.85 -80,-80c0,-44.15 35.85,-80 80,-80c44.15,0 80,35.85 80,80z"/>
  <path id="a1CasWBByt" d="m640,320c0,44.15 -35.85,80 -80,80c-44.15,0 -80,-35.85 -80,-80c0,-44.15 35.85,-80 80,-80c44.15,0 80,35.85 80,80z"/>
  <path id="a6nSYR2Ex" d="m640,560c0,44.15 -35.85,80 -80,80c-44.15,0 -80,-35.85 -80,-80c0,-44.15 35.85,-80 80,-80c44.15,0 80,35.85 80,80z"/>
 </defs>
 <g>
  <title>Layer 1</title>
  <ellipse stroke-opacity="0" fill-opacity="0" stroke="#0f0f00" ry="638.00011" rx="636.00013" id="svg_21" cy="642.00022" cx="640.00002" fill="#000000"/>
  <g id="svg_1">
   <g id="svg_2">
    <g id="svg_3">
     <use x="320.00001" y="319.99999" id="svg_4" fill="#5f6368" xlink:href="#agAOZUYtJ"/>
    </g>
    <g id="svg_5">
     <use x="320.00001" y="319.99999" id="svg_6" fill="#5f6368" xlink:href="#b134YKcBfu"/>
    </g>
    <g id="svg_7">
     <use x="320.00001" y="319.99999" id="svg_8" fill="#5f6368" xlink:href="#cbZKf2NZX"/>
    </g>
    <g id="svg_9">
     <use x="320.00001" y="319.99999" id="svg_10" fill="#5f6368" xlink:href="#d6u3N1n5b5"/>
    </g>
    <g id="svg_11">
     <use x="320.00001" y="319.99999" id="svg_12" fill="#5f6368" xlink:href="#ecv8sNDf8"/>
    </g>
    <g id="svg_13">
     <use x="320.00001" y="319.99999" id="svg_14" fill="#5f6368" xlink:href="#f19LOmb40c"/>
    </g>
    <g id="svg_15">
     <use x="320.00001" y="319.99999" id="svg_16" fill="#5f6368" xlink:href="#b3Ahqquq0h"/>
    </g>
    <g id="svg_17">
     <use x="320.00001" y="319.99999" id="svg_18" fill="#5f6368" xlink:href="#a1CasWBByt"/>
    </g>
    <g id="svg_19">
     <use x="320.00001" y="319.99999" id="svg_20" fill="#5f6368" xlink:href="#a6nSYR2Ex"/>
    </g>
   </g>
  </g>
 </g>
</svg>